<mxfile host="app.diagrams.net" modified="2021-10-28T11:41:05.025Z" agent="5.0 (Windows NT 10.0; Win64; x64) AppleWebKit/537.36 (KHTML, like Gecko) Chrome/94.0.4606.81 Safari/537.36" etag="DvybeeGSOflk2HfxxVpz" version="15.6.0" type="github">
  <diagram id="kgpKYQtTHZ0yAKxKKP6v" name="Page-1">
    <mxGraphModel dx="1422" dy="802" grid="1" gridSize="10" guides="1" tooltips="1" connect="1" arrows="1" fold="1" page="1" pageScale="1" pageWidth="850" pageHeight="1100" math="0" shadow="0">
      <root>
        <mxCell id="0" />
        <mxCell id="1" parent="0" />
        <mxCell id="3nuBFxr9cyL0pnOWT2aG-1" value="DEV4" style="shape=umlLifeline;perimeter=lifelinePerimeter;container=1;collapsible=0;recursiveResize=0;rounded=0;shadow=0;strokeWidth=1;" parent="1" vertex="1">
          <mxGeometry x="120" y="80" width="100" height="440" as="geometry" />
        </mxCell>
        <mxCell id="3nuBFxr9cyL0pnOWT2aG-2" value="" style="points=[];perimeter=orthogonalPerimeter;rounded=0;shadow=0;strokeWidth=1;" parent="3nuBFxr9cyL0pnOWT2aG-1" vertex="1">
          <mxGeometry x="45" y="70" width="10" height="190" as="geometry" />
        </mxCell>
        <mxCell id="3nuBFxr9cyL0pnOWT2aG-4" value="" style="points=[];perimeter=orthogonalPerimeter;rounded=0;shadow=0;strokeWidth=1;" parent="3nuBFxr9cyL0pnOWT2aG-1" vertex="1">
          <mxGeometry x="50" y="120" width="10" height="80" as="geometry" />
        </mxCell>
        <mxCell id="8o_KfLOrx-IrdunssBr1-11" value="" style="shape=flexArrow;endArrow=classic;startArrow=classic;html=1;rounded=0;fillColor=#a20025;strokeColor=#6F0000;" edge="1" parent="3nuBFxr9cyL0pnOWT2aG-1" target="3nuBFxr9cyL0pnOWT2aG-5">
          <mxGeometry width="100" height="100" relative="1" as="geometry">
            <mxPoint x="55" y="80" as="sourcePoint" />
            <mxPoint x="155" y="-20" as="targetPoint" />
          </mxGeometry>
        </mxCell>
        <mxCell id="8o_KfLOrx-IrdunssBr1-12" value="MERGE" style="edgeLabel;html=1;align=center;verticalAlign=middle;resizable=0;points=[];" vertex="1" connectable="0" parent="8o_KfLOrx-IrdunssBr1-11">
          <mxGeometry x="0.341" y="3" relative="1" as="geometry">
            <mxPoint x="-32" y="3" as="offset" />
          </mxGeometry>
        </mxCell>
        <mxCell id="3nuBFxr9cyL0pnOWT2aG-5" value="Test4" style="shape=umlLifeline;perimeter=lifelinePerimeter;container=1;collapsible=0;recursiveResize=0;rounded=0;shadow=0;strokeWidth=1;" parent="1" vertex="1">
          <mxGeometry x="300" y="80" width="100" height="440" as="geometry" />
        </mxCell>
        <mxCell id="3nuBFxr9cyL0pnOWT2aG-6" value="" style="points=[];perimeter=orthogonalPerimeter;rounded=0;shadow=0;strokeWidth=1;" parent="3nuBFxr9cyL0pnOWT2aG-5" vertex="1">
          <mxGeometry x="45" y="80" width="10" height="160" as="geometry" />
        </mxCell>
        <mxCell id="8o_KfLOrx-IrdunssBr1-7" value="Eli" style="verticalAlign=bottom;startArrow=oval;endArrow=block;startSize=8;shadow=0;strokeWidth=1;fillColor=#f8cecc;strokeColor=#b85450;fontColor=#B5739D;" edge="1" parent="3nuBFxr9cyL0pnOWT2aG-5">
          <mxGeometry x="-0.1667" relative="1" as="geometry">
            <mxPoint x="55" y="110" as="sourcePoint" />
            <mxPoint x="130" y="110" as="targetPoint" />
            <mxPoint as="offset" />
          </mxGeometry>
        </mxCell>
        <mxCell id="8o_KfLOrx-IrdunssBr1-8" value="Vitor" style="verticalAlign=bottom;startArrow=oval;endArrow=block;startSize=8;shadow=0;strokeWidth=1;fontColor=#B5739D;fontStyle=1;fillColor=#f8cecc;strokeColor=#b85450;" edge="1" parent="3nuBFxr9cyL0pnOWT2aG-5">
          <mxGeometry relative="1" as="geometry">
            <mxPoint x="55" y="130" as="sourcePoint" />
            <mxPoint x="130" y="130" as="targetPoint" />
            <Array as="points">
              <mxPoint x="80" y="130" />
              <mxPoint x="90" y="130" />
            </Array>
          </mxGeometry>
        </mxCell>
        <mxCell id="8o_KfLOrx-IrdunssBr1-10" value="Shaun" style="verticalAlign=bottom;startArrow=oval;endArrow=block;startSize=8;shadow=0;strokeWidth=1;" edge="1" parent="3nuBFxr9cyL0pnOWT2aG-5">
          <mxGeometry relative="1" as="geometry">
            <mxPoint x="40" y="108" as="sourcePoint" />
            <mxPoint x="-50" y="108" as="targetPoint" />
          </mxGeometry>
        </mxCell>
        <mxCell id="8o_KfLOrx-IrdunssBr1-25" value="" style="verticalAlign=bottom;endArrow=block;shadow=0;strokeWidth=1;" edge="1" parent="3nuBFxr9cyL0pnOWT2aG-5">
          <mxGeometry relative="1" as="geometry">
            <mxPoint x="-120" y="161.48" as="sourcePoint" />
            <mxPoint x="180" y="161" as="targetPoint" />
            <Array as="points">
              <mxPoint x="-60" y="161.48" />
            </Array>
          </mxGeometry>
        </mxCell>
        <mxCell id="8o_KfLOrx-IrdunssBr1-34" value="" style="shape=flexArrow;endArrow=classic;startArrow=classic;html=1;rounded=0;fillColor=#a20025;strokeColor=#6F0000;" edge="1" parent="3nuBFxr9cyL0pnOWT2aG-5">
          <mxGeometry width="100" height="100" relative="1" as="geometry">
            <mxPoint x="-119" y="260" as="sourcePoint" />
            <mxPoint x="26" y="260" as="targetPoint" />
          </mxGeometry>
        </mxCell>
        <mxCell id="8o_KfLOrx-IrdunssBr1-35" value="MERGE" style="edgeLabel;html=1;align=center;verticalAlign=middle;resizable=0;points=[];" vertex="1" connectable="0" parent="8o_KfLOrx-IrdunssBr1-34">
          <mxGeometry x="0.341" y="3" relative="1" as="geometry">
            <mxPoint x="-32" y="5" as="offset" />
          </mxGeometry>
        </mxCell>
        <mxCell id="3nuBFxr9cyL0pnOWT2aG-9" value="" style="verticalAlign=bottom;endArrow=block;shadow=0;strokeWidth=1;" parent="1" edge="1">
          <mxGeometry relative="1" as="geometry">
            <mxPoint x="260" y="216" as="sourcePoint" />
            <mxPoint x="180" y="216" as="targetPoint" />
            <Array as="points" />
          </mxGeometry>
        </mxCell>
        <mxCell id="8o_KfLOrx-IrdunssBr1-1" value="QA4" style="shape=umlLifeline;perimeter=lifelinePerimeter;container=1;collapsible=0;recursiveResize=0;rounded=0;shadow=0;strokeWidth=1;" vertex="1" parent="1">
          <mxGeometry x="440" y="80" width="100" height="440" as="geometry" />
        </mxCell>
        <mxCell id="8o_KfLOrx-IrdunssBr1-2" value="" style="points=[];perimeter=orthogonalPerimeter;rounded=0;shadow=0;strokeWidth=1;" vertex="1" parent="8o_KfLOrx-IrdunssBr1-1">
          <mxGeometry x="45" y="80" width="10" height="160" as="geometry" />
        </mxCell>
        <mxCell id="8o_KfLOrx-IrdunssBr1-18" value="Approved" style="verticalAlign=bottom;endArrow=open;dashed=1;shadow=0;strokeWidth=1;" edge="1" parent="8o_KfLOrx-IrdunssBr1-1">
          <mxGeometry relative="1" as="geometry">
            <mxPoint x="-270.5" y="234" as="targetPoint" />
            <mxPoint x="45" y="234" as="sourcePoint" />
            <Array as="points" />
          </mxGeometry>
        </mxCell>
        <mxCell id="8o_KfLOrx-IrdunssBr1-38" value="Eli" style="verticalAlign=bottom;startArrow=oval;endArrow=block;startSize=8;shadow=0;strokeWidth=1;fillColor=#f8cecc;strokeColor=#b85450;fontColor=#B5739D;" edge="1" parent="8o_KfLOrx-IrdunssBr1-1">
          <mxGeometry x="-0.1667" relative="1" as="geometry">
            <mxPoint y="280" as="sourcePoint" />
            <mxPoint x="211.5" y="280" as="targetPoint" />
            <mxPoint as="offset" />
          </mxGeometry>
        </mxCell>
        <mxCell id="8o_KfLOrx-IrdunssBr1-41" value="&lt;font color=&quot;#b5739d&quot;&gt;NOT&lt;/font&gt;" style="text;html=1;strokeColor=none;fillColor=none;align=center;verticalAlign=middle;whiteSpace=wrap;rounded=0;" vertex="1" parent="8o_KfLOrx-IrdunssBr1-1">
          <mxGeometry x="-15" y="302" width="60" height="30" as="geometry" />
        </mxCell>
        <mxCell id="8o_KfLOrx-IrdunssBr1-17" value="" style="verticalAlign=bottom;endArrow=block;shadow=0;strokeWidth=1;entryX=-0.4;entryY=0.794;entryDx=0;entryDy=0;entryPerimeter=0;fillColor=#008a00;strokeColor=#005700;" edge="1" parent="8o_KfLOrx-IrdunssBr1-1">
          <mxGeometry relative="1" as="geometry">
            <mxPoint x="-80" y="253" as="sourcePoint" />
            <mxPoint x="371" y="250.03999999999996" as="targetPoint" />
            <Array as="points">
              <mxPoint x="-20" y="253" />
            </Array>
          </mxGeometry>
        </mxCell>
        <mxCell id="8o_KfLOrx-IrdunssBr1-55" value="" style="shape=flexArrow;endArrow=classic;startArrow=classic;html=1;rounded=0;fillColor=#a20025;strokeColor=#6F0000;" edge="1" parent="8o_KfLOrx-IrdunssBr1-1">
          <mxGeometry width="100" height="100" relative="1" as="geometry">
            <mxPoint x="-78" y="270" as="sourcePoint" />
            <mxPoint x="-18" y="270" as="targetPoint" />
          </mxGeometry>
        </mxCell>
        <mxCell id="8o_KfLOrx-IrdunssBr1-56" value="MERGE" style="edgeLabel;html=1;align=center;verticalAlign=middle;resizable=0;points=[];" vertex="1" connectable="0" parent="8o_KfLOrx-IrdunssBr1-55">
          <mxGeometry x="0.341" y="3" relative="1" as="geometry">
            <mxPoint x="-10" y="3" as="offset" />
          </mxGeometry>
        </mxCell>
        <mxCell id="8o_KfLOrx-IrdunssBr1-3" value="Test Env 4" style="shape=umlLifeline;perimeter=lifelinePerimeter;container=1;collapsible=0;recursiveResize=0;rounded=0;shadow=0;strokeWidth=1;" vertex="1" parent="1">
          <mxGeometry x="602" y="80" width="100" height="440" as="geometry" />
        </mxCell>
        <mxCell id="8o_KfLOrx-IrdunssBr1-4" value="" style="points=[];perimeter=orthogonalPerimeter;rounded=0;shadow=0;strokeWidth=1;" vertex="1" parent="8o_KfLOrx-IrdunssBr1-3">
          <mxGeometry x="45" y="80" width="10" height="160" as="geometry" />
        </mxCell>
        <object label="Approved" id="8o_KfLOrx-IrdunssBr1-40">
          <mxCell style="verticalAlign=bottom;endArrow=open;dashed=1;shadow=0;strokeWidth=1;fillColor=#a20025;strokeColor=#6F0000;fontColor=#B5739D;" edge="1" parent="8o_KfLOrx-IrdunssBr1-3">
            <mxGeometry x="0.4286" y="16" relative="1" as="geometry">
              <mxPoint x="-162" y="304" as="targetPoint" />
              <mxPoint x="48" y="304" as="sourcePoint" />
              <Array as="points" />
              <mxPoint as="offset" />
            </mxGeometry>
          </mxCell>
        </object>
        <mxCell id="8o_KfLOrx-IrdunssBr1-5" value="Clients" style="shape=umlLifeline;perimeter=lifelinePerimeter;container=1;collapsible=0;recursiveResize=0;rounded=0;shadow=0;strokeWidth=1;" vertex="1" parent="1">
          <mxGeometry x="770" y="80" width="100" height="450" as="geometry" />
        </mxCell>
        <mxCell id="8o_KfLOrx-IrdunssBr1-6" value="" style="points=[];perimeter=orthogonalPerimeter;rounded=0;shadow=0;strokeWidth=1;" vertex="1" parent="8o_KfLOrx-IrdunssBr1-5">
          <mxGeometry x="45" y="80" width="10" height="160" as="geometry" />
        </mxCell>
        <mxCell id="8o_KfLOrx-IrdunssBr1-15" value="" style="endArrow=none;dashed=1;html=1;dashPattern=1 3;strokeWidth=2;rounded=0;" edge="1" parent="1">
          <mxGeometry width="50" height="50" relative="1" as="geometry">
            <mxPoint x="260" y="220" as="sourcePoint" />
            <mxPoint x="260" y="190" as="targetPoint" />
          </mxGeometry>
        </mxCell>
        <mxCell id="8o_KfLOrx-IrdunssBr1-26" value="Sophia" style="text;html=1;align=center;verticalAlign=middle;resizable=0;points=[];autosize=1;strokeColor=none;fillColor=none;" vertex="1" parent="1">
          <mxGeometry x="436" y="220" width="50" height="20" as="geometry" />
        </mxCell>
        <object label="Approved" id="8o_KfLOrx-IrdunssBr1-31">
          <mxCell style="verticalAlign=bottom;endArrow=open;dashed=1;shadow=0;strokeWidth=1;" edge="1" parent="1" target="3nuBFxr9cyL0pnOWT2aG-1">
            <mxGeometry x="0.4552" y="20" relative="1" as="geometry">
              <mxPoint x="330" y="250" as="targetPoint" />
              <mxPoint x="465" y="250" as="sourcePoint" />
              <Array as="points">
                <mxPoint x="450" y="250" />
              </Array>
              <mxPoint as="offset" />
            </mxGeometry>
          </mxCell>
        </object>
        <mxCell id="8o_KfLOrx-IrdunssBr1-32" value="NOT" style="text;html=1;strokeColor=none;fillColor=none;align=center;verticalAlign=middle;whiteSpace=wrap;rounded=0;" vertex="1" parent="1">
          <mxGeometry x="181" y="246" width="60" height="30" as="geometry" />
        </mxCell>
        <mxCell id="8o_KfLOrx-IrdunssBr1-37" value="" style="shape=link;html=1;rounded=0;labelBackgroundColor=#B5739D;fontColor=#B5739D;" edge="1" parent="1">
          <mxGeometry width="100" relative="1" as="geometry">
            <mxPoint x="430" y="190" as="sourcePoint" />
            <mxPoint x="430" y="460" as="targetPoint" />
          </mxGeometry>
        </mxCell>
        <mxCell id="8o_KfLOrx-IrdunssBr1-43" value="Eli" style="verticalAlign=bottom;startArrow=oval;endArrow=block;startSize=8;shadow=0;strokeWidth=1;fillColor=#f8cecc;strokeColor=#b85450;fontColor=#B5739D;" edge="1" parent="1" target="3nuBFxr9cyL0pnOWT2aG-1">
          <mxGeometry x="-0.1667" relative="1" as="geometry">
            <mxPoint x="640" y="430" as="sourcePoint" />
            <mxPoint x="205" y="432.8064516129032" as="targetPoint" />
            <mxPoint as="offset" />
          </mxGeometry>
        </mxCell>
        <mxCell id="8o_KfLOrx-IrdunssBr1-44" value="" style="shape=flexArrow;endArrow=classic;startArrow=classic;html=1;rounded=0;fillColor=#a20025;strokeColor=#6F0000;" edge="1" parent="1">
          <mxGeometry width="100" height="100" relative="1" as="geometry">
            <mxPoint x="191" y="470" as="sourcePoint" />
            <mxPoint x="336" y="470" as="targetPoint" />
          </mxGeometry>
        </mxCell>
        <mxCell id="8o_KfLOrx-IrdunssBr1-45" value="MERGE" style="edgeLabel;html=1;align=center;verticalAlign=middle;resizable=0;points=[];" vertex="1" connectable="0" parent="8o_KfLOrx-IrdunssBr1-44">
          <mxGeometry x="0.341" y="3" relative="1" as="geometry">
            <mxPoint x="-32" y="3" as="offset" />
          </mxGeometry>
        </mxCell>
        <mxCell id="8o_KfLOrx-IrdunssBr1-48" value="Approved" style="verticalAlign=bottom;endArrow=open;dashed=1;shadow=0;strokeWidth=1;entryX=0.48;entryY=0.82;entryDx=0;entryDy=0;entryPerimeter=0;fillColor=#a20025;strokeColor=#6F0000;fontColor=#B5739D;" edge="1" parent="1">
          <mxGeometry x="0.1232" y="-3" relative="1" as="geometry">
            <mxPoint x="168" y="447.79999999999995" as="targetPoint" />
            <mxPoint x="651.5" y="452" as="sourcePoint" />
            <Array as="points">
              <mxPoint x="490" y="452" />
            </Array>
            <mxPoint as="offset" />
          </mxGeometry>
        </mxCell>
        <mxCell id="8o_KfLOrx-IrdunssBr1-49" value="" style="verticalAlign=bottom;endArrow=block;shadow=0;strokeWidth=1;entryX=-0.4;entryY=0.794;entryDx=0;entryDy=0;entryPerimeter=0;fillColor=#008a00;strokeColor=#005700;exitX=0.5;exitY=0.977;exitDx=0;exitDy=0;exitPerimeter=0;" edge="1" parent="1" source="3nuBFxr9cyL0pnOWT2aG-5">
          <mxGeometry relative="1" as="geometry">
            <mxPoint x="370" y="507" as="sourcePoint" />
            <mxPoint x="821" y="504.03999999999996" as="targetPoint" />
            <Array as="points">
              <mxPoint x="430" y="507" />
            </Array>
          </mxGeometry>
        </mxCell>
        <mxCell id="8o_KfLOrx-IrdunssBr1-50" value="Eli" style="verticalAlign=bottom;startArrow=oval;endArrow=block;startSize=8;shadow=0;strokeWidth=1;fillColor=#f8cecc;strokeColor=#b85450;fontColor=#B5739D;exitX=0;exitY=0.994;exitDx=0;exitDy=0;exitPerimeter=0;" edge="1" parent="1">
          <mxGeometry x="-0.1667" relative="1" as="geometry">
            <mxPoint x="647" y="372.03999999999996" as="sourcePoint" />
            <mxPoint x="440" y="373" as="targetPoint" />
            <mxPoint as="offset" />
          </mxGeometry>
        </mxCell>
        <mxCell id="8o_KfLOrx-IrdunssBr1-51" value="" style="verticalAlign=bottom;endArrow=block;shadow=0;strokeWidth=1;" edge="1" parent="1" source="3nuBFxr9cyL0pnOWT2aG-1">
          <mxGeometry relative="1" as="geometry">
            <mxPoint x="270" y="277" as="sourcePoint" />
            <mxPoint x="270" y="277" as="targetPoint" />
            <Array as="points" />
          </mxGeometry>
        </mxCell>
        <mxCell id="8o_KfLOrx-IrdunssBr1-52" value="" style="verticalAlign=bottom;endArrow=block;shadow=0;strokeWidth=1;" edge="1" parent="1">
          <mxGeometry relative="1" as="geometry">
            <mxPoint x="263" y="292" as="sourcePoint" />
            <mxPoint x="183" y="292" as="targetPoint" />
            <Array as="points" />
          </mxGeometry>
        </mxCell>
        <mxCell id="8o_KfLOrx-IrdunssBr1-53" value="" style="endArrow=none;dashed=1;html=1;dashPattern=1 3;strokeWidth=2;rounded=0;" edge="1" parent="1">
          <mxGeometry width="50" height="50" relative="1" as="geometry">
            <mxPoint x="270" y="301" as="sourcePoint" />
            <mxPoint x="270" y="271" as="targetPoint" />
          </mxGeometry>
        </mxCell>
        <mxCell id="8o_KfLOrx-IrdunssBr1-54" value="" style="verticalAlign=bottom;endArrow=block;shadow=0;strokeWidth=1;exitX=1.3;exitY=0.784;exitDx=0;exitDy=0;exitPerimeter=0;" edge="1" parent="1" source="3nuBFxr9cyL0pnOWT2aG-2">
          <mxGeometry relative="1" as="geometry">
            <mxPoint x="190" y="300.48" as="sourcePoint" />
            <mxPoint x="490" y="300" as="targetPoint" />
            <Array as="points">
              <mxPoint x="250" y="300.48" />
            </Array>
          </mxGeometry>
        </mxCell>
      </root>
    </mxGraphModel>
  </diagram>
</mxfile>
